<svg width="211" height="214" viewBox="0 0 211 214" fill="none" xmlns="http://www.w3.org/2000/svg">
<path opacity="0.2" d="M202.938 132.531C202.938 147.056 198.63 161.254 190.561 173.331C182.492 185.408 171.022 194.82 157.603 200.379C144.184 205.937 129.419 207.391 115.173 204.558C100.928 201.724 87.8423 194.73 77.5719 184.459C67.3015 174.189 60.3072 161.104 57.4736 146.858C54.64 132.613 56.0943 117.847 61.6526 104.428C67.2109 91.009 76.6236 79.5396 88.7003 71.4702C100.777 63.4008 114.975 59.0938 129.5 59.0938C148.977 59.0938 167.656 66.8309 181.428 80.6031C195.2 94.3753 202.938 113.054 202.938 132.531Z" fill="#F97316"/>
<path d="M164.263 59.6262C173.712 54.633 181.622 47.1592 187.142 38.0081C192.662 28.857 195.584 18.3746 195.594 7.6875C195.594 5.73982 194.82 3.8719 193.443 2.49468C192.066 1.11746 190.198 0.34375 188.25 0.34375H180.906C170.408 0.347728 160.102 3.16487 151.061 8.50209C142.021 13.8393 134.575 21.5016 129.5 30.6918C124.425 21.5016 116.979 13.8393 107.939 8.50209C98.898 3.16487 88.5923 0.347728 78.0938 0.34375H70.75C68.8023 0.34375 66.9344 1.11746 65.5572 2.49468C64.18 3.8719 63.4063 5.73982 63.4063 7.6875C63.4063 9.63518 64.18 11.5031 65.5572 12.8803C66.9344 14.2575 68.8023 15.0312 70.75 15.0312H78.0938C88.5701 15.0456 98.6997 18.7861 106.671 25.5837C114.643 32.3814 119.936 41.793 121.605 52.1355C102.167 54.0382 84.0759 62.9191 70.6815 77.1342C57.2872 91.3494 49.4966 109.936 48.7521 129.453C48.0076 148.971 54.3595 168.097 66.632 183.291C78.9044 198.485 96.2663 208.719 115.503 212.097C134.741 215.474 154.55 211.768 171.265 201.664C187.98 191.56 200.468 175.742 206.417 157.139C212.366 138.535 211.374 118.407 203.624 100.479C195.874 82.5505 181.891 68.0375 164.263 59.6262ZM180.291 15.0312C178.559 25.1883 173.329 34.4195 165.506 41.1256C157.683 47.8317 147.761 51.5902 137.459 51.75C139.191 41.5929 144.421 32.3617 152.244 25.6556C160.067 18.9495 169.989 15.191 180.291 15.0312ZM129.5 198.625C116.428 198.625 103.649 194.749 92.7803 187.486C81.9112 180.224 73.4398 169.901 68.4373 157.824C63.4349 145.747 62.126 132.458 64.6762 119.637C67.2265 106.816 73.5213 95.0393 82.7647 85.7959C92.008 76.5525 103.785 70.2577 116.606 67.7075C129.427 65.1572 142.716 66.4661 154.793 71.4686C166.87 76.4711 177.192 84.9425 184.455 95.8115C191.717 106.681 195.594 119.459 195.594 132.531C195.574 150.054 188.605 166.854 176.214 179.245C163.823 191.636 147.023 198.606 129.5 198.625ZM180.805 141.087C178.916 151.733 173.803 161.543 166.157 169.188C158.511 176.834 148.702 181.947 138.055 183.837C137.655 183.902 137.25 183.935 136.844 183.937C135.002 183.935 133.229 183.24 131.876 181.992C130.522 180.744 129.687 179.032 129.536 177.197C129.385 175.362 129.928 173.537 131.059 172.084C132.19 170.631 133.825 169.655 135.641 169.351C143.283 167.993 150.324 164.322 155.812 158.834C161.3 153.346 164.971 146.305 166.329 138.663C166.666 136.757 167.742 135.061 169.323 133.944C170.905 132.827 172.863 132.38 174.772 132.699C176.682 133.018 178.388 134.079 179.519 135.65C180.651 137.22 181.116 139.174 180.814 141.087H180.805Z" fill="#F97316"/>
<line x1="58.1349" y1="61.0977" x2="52.3874" y2="44.04" stroke="#F97316" stroke-width="14" stroke-linecap="round"/>
<line x1="18.7539" y1="70.3084" x2="33.4696" y2="80.6741" stroke="#F97316" stroke-width="14" stroke-linecap="round"/>
<line x1="7.99025" y1="112.889" x2="25.8253" y2="110.457" stroke="#F97316" stroke-width="14" stroke-linecap="round"/>
</svg>
