<svg width="822" height="213" viewBox="0 0 822 213" fill="none" xmlns="http://www.w3.org/2000/svg">
<path opacity="0.2" d="M202.938 132.188C202.938 146.712 198.63 160.91 190.561 172.987C182.492 185.064 171.022 194.477 157.603 200.035C144.184 205.593 129.419 207.048 115.173 204.214C100.928 201.38 87.8423 194.386 77.5719 184.116C67.3015 173.845 60.3072 160.76 57.4736 146.514C54.64 132.269 56.0943 117.503 61.6526 104.084C67.2109 90.6652 76.6236 79.1959 88.7003 71.1264C100.777 63.057 114.975 58.75 129.5 58.75C148.977 58.75 167.656 66.4871 181.428 80.2593C195.2 94.0315 202.938 112.711 202.938 132.188Z" fill="#F97316"/>
<path d="M164.263 59.2824C173.712 54.2892 181.622 46.8154 187.142 37.6643C192.662 28.5132 195.584 18.0308 195.594 7.34375C195.594 5.39607 194.82 3.52815 193.443 2.15093C192.066 0.773714 190.198 0 188.25 0H180.906C170.408 0.0039781 160.102 2.82112 151.061 8.15834C142.021 13.4956 134.575 21.1578 129.5 30.348C124.425 21.1578 116.979 13.4956 107.939 8.15834C98.898 2.82112 88.5923 0.0039781 78.0938 0H70.75C68.8023 0 66.9344 0.773714 65.5572 2.15093C64.18 3.52815 63.4063 5.39607 63.4063 7.34375C63.4063 9.29143 64.18 11.1593 65.5572 12.5366C66.9344 13.9138 68.8023 14.6875 70.75 14.6875H78.0938C88.5701 14.7019 98.6997 18.4423 106.671 25.24C114.643 32.0377 119.936 41.4493 121.605 51.7918C102.167 53.6944 84.0759 62.5753 70.6815 76.7905C57.2872 91.0056 49.4966 109.592 48.7521 129.11C48.0076 148.627 54.3595 167.753 66.632 182.947C78.9044 198.141 96.2663 208.375 115.503 211.753C134.741 215.131 154.55 211.425 171.265 201.32C187.98 191.216 200.468 175.398 206.417 156.795C212.366 138.192 211.374 118.063 203.624 100.135C195.874 82.2068 181.891 67.6937 164.263 59.2824ZM180.291 14.6875C178.559 24.8446 173.329 34.0758 165.506 40.7819C157.683 47.488 147.761 51.2465 137.459 51.4062C139.191 41.2492 144.421 32.018 152.244 25.3119C160.067 18.6058 169.989 14.8473 180.291 14.6875ZM129.5 198.281C116.428 198.281 103.649 194.405 92.7803 187.142C81.9112 179.88 73.4398 169.558 68.4373 157.48C63.4349 145.403 62.126 132.114 64.6762 119.293C67.2265 106.472 73.5213 94.6955 82.7647 85.4522C92.008 76.2088 103.785 69.914 116.606 67.3637C129.427 64.8135 142.716 66.1224 154.793 71.1248C166.87 76.1273 177.192 84.5987 184.455 95.4678C191.717 106.337 195.594 119.115 195.594 132.187C195.574 149.711 188.605 166.511 176.214 178.901C163.823 191.292 147.023 198.262 129.5 198.281ZM180.805 140.743C178.916 151.389 173.803 161.199 166.157 168.845C158.511 176.49 148.702 181.604 138.055 183.493C137.655 183.558 137.25 183.592 136.844 183.594C135.002 183.591 133.229 182.897 131.876 181.648C130.522 180.4 129.687 178.688 129.536 176.853C129.385 175.018 129.928 173.193 131.059 171.74C132.19 170.287 133.825 169.312 135.641 169.007C143.283 167.649 150.324 163.978 155.812 158.49C161.3 153.002 164.971 145.961 166.329 138.32C166.666 136.413 167.742 134.717 169.323 133.6C170.905 132.483 172.863 132.036 174.772 132.355C176.682 132.675 178.388 133.735 179.519 135.306C180.651 136.877 181.116 138.831 180.814 140.743H180.805Z" fill="#F97316"/>
<line x1="58.1349" y1="60.754" x2="52.3874" y2="43.6962" stroke="#F97316" stroke-width="14" stroke-linecap="round"/>
<line x1="18.7539" y1="69.9646" x2="33.4696" y2="80.3304" stroke="#F97316" stroke-width="14" stroke-linecap="round"/>
<line x1="7.99025" y1="112.545" x2="25.8253" y2="110.114" stroke="#F97316" stroke-width="14" stroke-linecap="round"/>
<path d="M260.94 156.22L250.14 151.18C261.48 124 270.3 97.18 276.06 68.92H267.24L268.86 54.88H282L286.14 18.16H300.18L296.22 54.88H305.76L304.32 68.92H294.96L292.98 87.46C297.12 92.14 301.08 97 305.4 102.58L298.2 114.1C295.86 110.5 293.52 107.26 291.18 104.38L281.82 192.4H267.96L277.86 101.68C273.54 119.68 268.32 137.68 260.94 156.22ZM305.04 97.54L295.86 85.84C305.22 80.8 313.14 73.78 319.26 64.96C315.3 61 311.52 57.4 307.74 54.34L315.12 44.08C318.54 47.14 321.96 50.38 325.56 53.98C327.72 49.3 329.52 44.08 330.96 38.5H308.82L310.44 25.54H333.66C342.12 25.54 346.44 29.32 345.36 37.42C343.56 51.46 337.08 65.14 327.54 77.02H361.92C352.74 62.08 347.34 44.08 346.62 22.48L359.4 20.86C359.58 26.8 360.12 32.38 361.2 37.6C365.16 33.28 368.94 28.42 372.54 22.3L381.72 30.04C376.86 37.96 370.92 44.98 364.8 50.92C366.06 54.34 367.5 57.76 369.12 61C373.62 56.86 377.76 52 381.54 46.42L390 54.7C385.5 61.18 380.64 66.76 375.78 71.62C380.46 78.28 386.04 84.22 392.16 89.62L382.98 101.32C376.14 95.56 370.02 88.9 364.98 81.7L363.9 91.06H322.14L323.22 82.06C317.82 88 311.7 93.22 305.04 97.54ZM372.36 113.56L368.94 144.52H307.02L311.88 100.42H360.12C370.02 100.42 373.26 105.82 372.36 113.56ZM323.04 130.66H355.08L356.88 114.46H324.84L323.04 130.66ZM375.78 175.3L374.16 190.06H293.7L295.14 175.3H318.18C315.3 167.92 313.32 160.36 312.24 153.7L325.92 151C327.36 158.92 329.34 167.2 332.22 175.3H338.16C343.38 167.2 346.8 158.74 349.86 150.28L362.28 155.5C359.94 162.16 357.24 168.64 353.1 175.3H375.78ZM526.405 95.38L524.605 111.22H475.285L471.145 160.9C469.525 179.62 461.245 192.58 442.705 192.58C429.205 192.58 419.485 182.68 416.605 165.04L432.805 160.36C434.785 170.8 438.025 175.3 443.785 175.3C449.545 175.3 453.325 170.98 454.405 159.1L458.545 111.22H406.525L408.325 95.38H459.985L461.785 74.68L496.525 40.66H425.425L427.045 25.36H506.425C519.385 25.36 522.445 36.52 514.165 44.62L477.805 80.8L476.545 95.38H526.405ZM571.01 192.4L579.83 109.06C572.81 119.32 564.89 129.04 555.89 138.76L543.83 127.96C566.51 104.02 580.73 80.62 591.89 53.98H561.11L562.91 37.96H598.19C600.53 31.48 602.87 24.82 605.03 17.98L619.43 21.76C617.81 27.34 616.01 32.74 614.39 37.96H672.71L670.91 53.98H608.45C605.75 60.82 602.87 67.66 599.81 74.14H645.89C655.07 74.14 660.83 79 659.93 87.46L651.83 163.6C649.49 186.28 638.15 192.94 625.55 192.94C613.85 192.94 604.13 184.66 601.61 169.9L614.75 166.48C616.73 174.04 619.43 177.82 625.37 177.82C631.13 177.82 634.91 173.86 636.53 158.2L637.43 149.38H591.35L586.85 192.4H571.01ZM596.03 104.2H642.11L643.73 88.36H597.83L596.03 104.2ZM592.79 135.7H638.87L640.67 117.88H594.59L592.79 135.7ZM689.055 194.2L681.855 178.9C718.395 161.8 722.715 143.08 727.755 108.52H694.095L695.715 92.5H744.855L752.415 20.68H768.795L761.235 92.5H813.435L811.635 108.52H775.815L770.055 158.92C768.435 173.14 772.395 178.18 779.775 178.18C788.595 178.18 793.815 173.32 795.795 155.14L811.095 156.76C808.935 181.78 799.215 194.92 778.695 194.92C761.595 194.92 751.155 182.14 753.495 159.64L759.075 108.52H743.955C738.015 148.84 731.895 175.3 689.055 194.2ZM736.935 75.94L722.535 82.24C717.675 63.88 711.915 48.94 705.435 35.26L720.195 28.96C726.315 41.2 732.615 59.56 736.935 75.94ZM773.295 74.14C784.275 60.82 792.735 46.96 800.115 30.04L813.795 37.96C806.055 55.24 797.055 70 785.895 83.32L773.295 74.14Z" fill="url(#paint0_linear_429_10)"/>
<defs>
<linearGradient id="paint0_linear_429_10" x1="246" y1="111" x2="822" y2="111" gradientUnits="userSpaceOnUse">
<stop offset="0.21" stop-color="#F97316"/>
<stop offset="1" stop-color="#FCCDAB"/>
</linearGradient>
</defs>
</svg>
